<svg width="193" height="92" viewBox="0 0 193 92" fill="none" xmlns="http://www.w3.org/2000/svg">
<path d="M4.71707 80.3473V80.9068H2.84568V87.0901H2.17043V80.9068H0.289391V80.3473H4.71707ZM6.45854 82.7589C6.60645 82.4309 6.83153 82.1769 7.13379 81.9968C7.44247 81.8167 7.81868 81.7267 8.26241 81.7267V82.4309H8.07913C7.59038 82.4309 7.19809 82.5627 6.90227 82.8264C6.60645 83.0901 6.45854 83.5306 6.45854 84.1479V87.0901H5.78329V81.8232H6.45854V82.7589ZM8.96953 84.447C8.96953 83.9068 9.07564 83.4341 9.28786 83.029C9.50651 82.6174 9.80555 82.3023 10.185 82.0836C10.5708 81.8585 11.0049 81.746 11.4872 81.746C11.9888 81.746 12.4197 81.8618 12.7798 82.0933C13.1464 82.3248 13.4101 82.6206 13.5708 82.9807V81.8232H14.2461V87.0901H13.5708V85.9229C13.4036 86.283 13.1368 86.582 12.7702 86.82C12.4101 87.0515 11.9792 87.1673 11.4776 87.1673C11.0017 87.1673 10.5708 87.0547 10.185 86.8296C9.80555 86.6046 9.50651 86.2862 9.28786 85.8746C9.07564 85.4631 8.96953 84.9872 8.96953 84.447ZM13.5708 84.4566C13.5708 84.0322 13.484 83.6592 13.3104 83.3377C13.1368 83.0161 12.8988 82.7685 12.5966 82.5949C12.3007 82.4212 11.9728 82.3344 11.6126 82.3344C11.2396 82.3344 10.9052 82.418 10.6094 82.5852C10.3136 82.7524 10.0789 82.9968 9.90523 83.3184C9.73803 83.6335 9.65442 84.0097 9.65442 84.447C9.65442 84.8779 9.73803 85.2573 9.90523 85.5853C10.0789 85.9068 10.3136 86.1544 10.6094 86.328C10.9052 86.4952 11.2396 86.5788 11.6126 86.5788C11.9728 86.5788 12.3007 86.492 12.5966 86.3184C12.8988 86.1447 13.1368 85.8972 13.3104 85.5756C13.484 85.2541 13.5708 84.8811 13.5708 84.4566ZM18.2571 81.7267C18.8873 81.7267 19.4018 81.9229 19.8005 82.3151C20.1992 82.701 20.3986 83.2637 20.3986 84.0033V87.0901H19.733V84.0804C19.733 83.5081 19.5883 83.0708 19.2989 82.7685C19.0159 82.4663 18.6269 82.3151 18.1317 82.3151C17.6236 82.3151 17.2185 82.4759 16.9162 82.7975C16.614 83.119 16.4629 83.5917 16.4629 84.2155V87.0901H15.7876V81.8232H16.4629V82.7203C16.6301 82.3987 16.8712 82.1544 17.1863 81.9872C17.5015 81.8135 17.8584 81.7267 18.2571 81.7267ZM23.7055 87.1673C23.101 87.1673 22.6058 87.029 22.2199 86.7525C21.8405 86.4695 21.6283 86.0869 21.5833 85.6045H22.2778C22.31 85.9004 22.4482 86.1415 22.6926 86.328C22.9434 86.5081 23.2778 86.5981 23.6958 86.5981C24.0624 86.5981 24.3486 86.5113 24.5544 86.3377C24.7666 86.164 24.8727 85.9486 24.8727 85.6914C24.8727 85.5113 24.8148 85.3634 24.6991 85.2476C24.5833 85.1319 24.4354 85.0418 24.2553 84.9775C24.0817 84.9068 23.8437 84.8328 23.5415 84.7557C23.1492 84.6528 22.8309 84.5499 22.5865 84.447C22.3421 84.3441 22.1331 84.193 21.9595 83.9936C21.7923 83.7878 21.7087 83.5145 21.7087 83.1737C21.7087 82.9164 21.7859 82.6785 21.9402 82.4598C22.0945 82.2412 22.3132 82.0675 22.5961 81.9389C22.8791 81.8103 23.2007 81.746 23.5608 81.746C24.1267 81.746 24.5833 81.8907 24.9306 82.1801C25.2778 82.4631 25.4643 82.8553 25.4901 83.3569H24.8148C24.7955 83.0483 24.6733 82.8007 24.4482 82.6142C24.2296 82.4212 23.9273 82.3248 23.5415 82.3248C23.2007 82.3248 22.9241 82.4052 22.7119 82.5659C22.4997 82.7267 22.3936 82.9261 22.3936 83.164C22.3936 83.3698 22.4547 83.5402 22.5769 83.6753C22.7055 83.8039 22.863 83.9068 23.0495 83.984C23.236 84.0547 23.4868 84.1351 23.8019 84.2251C24.1814 84.328 24.4836 84.4277 24.7087 84.5242C24.9338 84.6206 25.1267 84.7621 25.2875 84.9486C25.4483 85.1351 25.5319 85.3827 25.5383 85.6914C25.5383 85.9743 25.4611 86.2283 25.3068 86.4534C25.1524 86.6721 24.937 86.8457 24.6605 86.9743C24.3839 87.1029 24.0656 87.1673 23.7055 87.1673ZM28.8833 82.3923H27.6582V87.0901H26.983V82.3923H26.2499V81.8232H26.983V81.4566C26.983 80.8843 27.1277 80.463 27.4171 80.1929C27.7129 79.9228 28.1888 79.7878 28.8447 79.7878V80.3666C28.4074 80.3666 28.0987 80.4502 27.9187 80.6174C27.745 80.7846 27.6582 81.0643 27.6582 81.4566V81.8232H28.8833V82.3923ZM32.2518 87.1673C31.7566 87.1673 31.3096 87.0579 30.9109 86.8393C30.5186 86.6142 30.2067 86.2991 29.9752 85.8939C29.7502 85.4824 29.6376 85.0033 29.6376 84.4566C29.6376 83.91 29.7534 83.4341 29.9849 83.029C30.2164 82.6174 30.5315 82.3023 30.9302 82.0836C31.3289 81.8585 31.7759 81.746 32.2711 81.746C32.7662 81.746 33.2132 81.8585 33.6119 82.0836C34.0171 82.3023 34.3322 82.6174 34.5573 83.029C34.7888 83.4341 34.9045 83.91 34.9045 84.4566C34.9045 84.9968 34.7888 85.4727 34.5573 85.8843C34.3257 86.2959 34.0074 86.6142 33.6023 86.8393C33.1971 87.0579 32.747 87.1673 32.2518 87.1673ZM32.2518 86.5788C32.599 86.5788 32.9206 86.5017 33.2164 86.3473C33.5122 86.1865 33.7502 85.9486 33.9302 85.6335C34.1167 85.3119 34.21 84.9197 34.21 84.4566C34.21 83.9936 34.12 83.6045 33.9399 83.2894C33.7598 82.9679 33.5219 82.7299 33.2261 82.5756C32.9302 82.4148 32.6087 82.3344 32.2614 82.3344C31.9142 82.3344 31.5926 82.4148 31.2968 82.5756C31.001 82.7299 30.763 82.9679 30.583 83.2894C30.4093 83.6045 30.3225 83.9936 30.3225 84.4566C30.3225 84.9197 30.4093 85.3119 30.583 85.6335C30.763 85.9486 30.9977 86.1865 31.2871 86.3473C31.583 86.5017 31.9045 86.5788 32.2518 86.5788ZM36.8107 82.7589C36.9586 82.4309 37.1837 82.1769 37.4859 81.9968C37.7946 81.8167 38.1708 81.7267 38.6145 81.7267V82.4309H38.4313C37.9425 82.4309 37.5502 82.5627 37.2544 82.8264C36.9586 83.0901 36.8107 83.5306 36.8107 84.1479V87.0901H36.1354V81.8232H36.8107V82.7589ZM45.9005 81.7267C46.5178 81.7267 47.0195 81.9229 47.4053 82.3151C47.7976 82.701 47.9937 83.2637 47.9937 84.0033V87.0901H47.3281V84.0804C47.3281 83.5081 47.1899 83.0708 46.9133 82.7685C46.6368 82.4663 46.2606 82.3151 45.7847 82.3151C45.2895 82.3151 44.894 82.4791 44.5982 82.8071C44.3024 83.1351 44.1545 83.611 44.1545 84.2348V87.0901H43.4889V84.0804C43.4889 83.5081 43.3506 83.0708 43.0741 82.7685C42.7976 82.4663 42.4181 82.3151 41.9358 82.3151C41.4406 82.3151 41.0451 82.4791 40.7493 82.8071C40.4535 83.1351 40.3056 83.611 40.3056 84.2348V87.0901H39.6303V81.8232H40.3056V82.7299C40.4728 82.402 40.7107 82.1544 41.0194 81.9872C41.3281 81.8135 41.6722 81.7267 42.0516 81.7267C42.5082 81.7267 42.9069 81.836 43.2477 82.0547C43.595 82.2733 43.8458 82.5949 44.0001 83.0193C44.1416 82.6013 44.3828 82.283 44.7236 82.0643C45.0709 81.8393 45.4632 81.7267 45.9005 81.7267ZM49.831 80.8296C49.6959 80.8296 49.5802 80.7814 49.4837 80.6849C49.3873 80.5884 49.339 80.4695 49.339 80.328C49.339 80.1865 49.3873 80.0708 49.4837 79.9807C49.5802 79.8843 49.6959 79.836 49.831 79.836C49.966 79.836 50.0818 79.8843 50.1783 79.9807C50.2747 80.0708 50.323 80.1865 50.323 80.328C50.323 80.4695 50.2747 80.5884 50.1783 80.6849C50.0818 80.7814 49.966 80.8296 49.831 80.8296ZM50.1686 81.8232V87.0901H49.4934V81.8232H50.1686ZM54.1672 81.7267C54.7974 81.7267 55.3119 81.9229 55.7106 82.3151C56.1093 82.701 56.3087 83.2637 56.3087 84.0033V87.0901H55.6431V84.0804C55.6431 83.5081 55.4984 83.0708 55.209 82.7685C54.926 82.4663 54.537 82.3151 54.0418 82.3151C53.5337 82.3151 53.1286 82.4759 52.8263 82.7975C52.5241 83.119 52.373 83.5917 52.373 84.2155V87.0901H51.6977V81.8232H52.373V82.7203C52.5402 82.3987 52.7813 82.1544 53.0964 81.9872C53.4115 81.8135 53.7685 81.7267 54.1672 81.7267ZM60.0111 81.746C60.5062 81.746 60.9371 81.8618 61.3037 82.0933C61.6702 82.3248 61.9339 82.6174 62.0947 82.9711V81.8232H62.7699V87.2251C62.7699 87.7075 62.6638 88.1351 62.4516 88.5081C62.2458 88.8811 61.9564 89.1673 61.5834 89.3666C61.2104 89.5724 60.786 89.6753 60.3101 89.6753C59.6349 89.6753 59.0722 89.5145 58.622 89.193C58.1783 88.8714 57.9017 88.4341 57.7924 87.8811H58.458C58.5738 88.2477 58.7924 88.5403 59.114 88.7589C59.4419 88.9776 59.8406 89.0869 60.3101 89.0869C60.6509 89.0869 60.9564 89.0129 61.2265 88.865C61.4966 88.7235 61.7088 88.5113 61.8632 88.2284C62.0175 87.9454 62.0947 87.611 62.0947 87.2251V85.9229C61.9275 86.283 61.6606 86.582 61.294 86.82C60.9339 87.0515 60.5062 87.1673 60.0111 87.1673C59.5287 87.1673 59.0947 87.0547 58.7088 86.8296C58.3294 86.6046 58.0303 86.2862 57.8117 85.8746C57.5995 85.4631 57.4934 84.9872 57.4934 84.447C57.4934 83.9068 57.5995 83.4341 57.8117 83.029C58.0303 82.6174 58.3294 82.3023 58.7088 82.0836C59.0947 81.8585 59.5287 81.746 60.0111 81.746ZM62.0947 84.4566C62.0947 84.0322 62.0079 83.6592 61.8342 83.3377C61.6606 83.0161 61.4226 82.7685 61.1204 82.5949C60.8246 82.4212 60.4966 82.3344 60.1365 82.3344C59.7635 82.3344 59.4291 82.418 59.1332 82.5852C58.8374 82.7524 58.6027 82.9968 58.4291 83.3184C58.2619 83.6335 58.1783 84.0097 58.1783 84.447C58.1783 84.8779 58.2619 85.2573 58.4291 85.5853C58.6027 85.9068 58.8374 86.1544 59.1332 86.328C59.4291 86.4952 59.7635 86.5788 60.1365 86.5788C60.4966 86.5788 60.8246 86.492 61.1204 86.3184C61.4226 86.1447 61.6606 85.8972 61.8342 85.5756C62.0079 85.2541 62.0947 84.8811 62.0947 84.4566ZM69.0036 87.1576C68.5598 87.1576 68.1676 87.0804 67.8267 86.9261C67.4923 86.7718 67.2287 86.5563 67.0357 86.2798C66.8428 86.0033 66.7399 85.6946 66.727 85.3537H67.4409C67.473 85.6817 67.6177 85.9711 67.875 86.2219C68.1322 86.4663 68.5084 86.5885 69.0036 86.5885C69.4602 86.5885 69.8203 86.4727 70.084 86.2412C70.3541 86.0033 70.4891 85.7042 70.4891 85.3441C70.4891 85.0547 70.4152 84.8232 70.2673 84.6496C70.1193 84.4695 69.9361 84.3377 69.7174 84.2541C69.4988 84.164 69.1965 84.0676 68.8107 83.9647C68.3605 83.8425 68.0036 83.7235 67.7399 83.6078C67.4762 83.492 67.2512 83.3119 67.0647 83.0676C66.8782 82.8232 66.7849 82.492 66.7849 82.074C66.7849 81.7267 66.875 81.418 67.055 81.1479C67.2351 80.8714 67.4891 80.656 67.8171 80.5016C68.1451 80.3473 68.5213 80.2701 68.9457 80.2701C69.5695 80.2701 70.0711 80.4245 70.4505 80.7331C70.8364 81.0354 71.0583 81.4277 71.1161 81.91H70.383C70.338 81.6335 70.1869 81.3891 69.9296 81.1769C69.6724 80.9582 69.3251 80.8489 68.8878 80.8489C68.4827 80.8489 68.1451 80.9582 67.875 81.1769C67.6049 81.3891 67.4698 81.6817 67.4698 82.0547C67.4698 82.3376 67.5438 82.5659 67.6917 82.7396C67.8396 82.9132 68.0229 83.045 68.2415 83.1351C68.4666 83.2251 68.7689 83.3216 69.1483 83.4245C69.5856 83.5467 69.9393 83.6688 70.2094 83.791C70.4795 83.9068 70.7078 84.0869 70.8943 84.3312C71.0808 84.5756 71.174 84.9036 71.174 85.3152C71.174 85.6303 71.0904 85.9293 70.9232 86.2123C70.756 86.4952 70.5084 86.7235 70.1804 86.8972C69.8525 87.0708 69.4602 87.1576 69.0036 87.1576ZM73.1444 82.9807C73.3116 82.627 73.5753 82.3344 73.9354 82.1029C74.302 81.865 74.7361 81.746 75.2377 81.746C75.7136 81.746 76.1412 81.8585 76.5207 82.0836C76.9065 82.3023 77.2055 82.6174 77.4178 83.029C77.6364 83.4341 77.7457 83.9068 77.7457 84.447C77.7457 84.9872 77.6364 85.4631 77.4178 85.8746C77.2055 86.2862 76.9065 86.6046 76.5207 86.8296C76.1412 87.0547 75.7136 87.1673 75.2377 87.1673C74.7425 87.1673 74.3116 87.0515 73.9451 86.82C73.5785 86.582 73.3116 86.2862 73.1444 85.9325V89.5788H72.4788V81.8232H73.1444V82.9807ZM77.0609 84.447C77.0609 84.0097 76.974 83.6335 76.8004 83.3184C76.6332 82.9968 76.4017 82.7524 76.1059 82.5852C75.81 82.418 75.4756 82.3344 75.1026 82.3344C74.7425 82.3344 74.4113 82.4212 74.1091 82.5949C73.8132 82.7685 73.5785 83.0161 73.4049 83.3377C73.2312 83.6592 73.1444 84.0322 73.1444 84.4566C73.1444 84.8811 73.2312 85.2541 73.4049 85.5756C73.5785 85.8972 73.8132 86.1447 74.1091 86.3184C74.4113 86.492 74.7425 86.5788 75.1026 86.5788C75.4756 86.5788 75.81 86.4952 76.1059 86.328C76.4017 86.1544 76.6332 85.9068 76.8004 85.5853C76.974 85.2573 77.0609 84.8779 77.0609 84.447ZM78.6796 84.447C78.6796 83.9068 78.7857 83.4341 78.9979 83.029C79.2165 82.6174 79.5156 82.3023 79.895 82.0836C80.2809 81.8585 80.7149 81.746 81.1973 81.746C81.6989 81.746 82.1297 81.8618 82.4899 82.0933C82.8564 82.3248 83.1201 82.6206 83.2809 82.9807V81.8232H83.9561V87.0901H83.2809V85.9229C83.1137 86.283 82.8468 86.582 82.4802 86.82C82.1201 87.0515 81.6892 87.1673 81.1876 87.1673C80.7117 87.1673 80.2809 87.0547 79.895 86.8296C79.5156 86.6046 79.2165 86.2862 78.9979 85.8746C78.7857 85.4631 78.6796 84.9872 78.6796 84.447ZM83.2809 84.4566C83.2809 84.0322 83.1941 83.6592 83.0204 83.3377C82.8468 83.0161 82.6088 82.7685 82.3066 82.5949C82.0108 82.4212 81.6828 82.3344 81.3227 82.3344C80.9497 82.3344 80.6153 82.418 80.3194 82.5852C80.0236 82.7524 79.7889 82.9968 79.6153 83.3184C79.448 83.6335 79.3644 84.0097 79.3644 84.447C79.3644 84.8779 79.448 85.2573 79.6153 85.5853C79.7889 85.9068 80.0236 86.1544 80.3194 86.328C80.6153 86.4952 80.9497 86.5788 81.3227 86.5788C81.6828 86.5788 82.0108 86.492 82.3066 86.3184C82.6088 86.1447 82.8468 85.8972 83.0204 85.5756C83.1941 85.2541 83.2809 84.8811 83.2809 84.4566ZM85.189 84.4566C85.189 83.91 85.2983 83.4341 85.5169 83.029C85.7356 82.6174 86.0378 82.3023 86.4237 82.0836C86.8096 81.8585 87.2501 81.746 87.7453 81.746C88.3948 81.746 88.9285 81.9068 89.3466 82.2283C89.771 82.5499 90.0443 82.9872 90.1665 83.5402H89.443C89.353 83.1608 89.1568 82.865 88.8546 82.6528C88.5588 82.4341 88.189 82.3248 87.7453 82.3248C87.3916 82.3248 87.0732 82.4052 86.7903 82.5659C86.5073 82.7267 86.2822 82.9679 86.115 83.2894C85.9542 83.6045 85.8739 83.9936 85.8739 84.4566C85.8739 84.9197 85.9542 85.3119 86.115 85.6335C86.2822 85.955 86.5073 86.1962 86.7903 86.357C87.0732 86.5177 87.3916 86.5981 87.7453 86.5981C88.189 86.5981 88.5588 86.492 88.8546 86.2798C89.1568 86.0611 89.353 85.7589 89.443 85.373H90.1665C90.0443 85.9132 89.771 86.3473 89.3466 86.6753C88.9221 87.0033 88.3883 87.1673 87.7453 87.1673C87.2501 87.1673 86.8096 87.0579 86.4237 86.8393C86.0378 86.6142 85.7356 86.2991 85.5169 85.8939C85.2983 85.4824 85.189 85.0033 85.189 84.4566ZM96.1789 84.1865C96.1789 84.418 96.1725 84.5949 96.1596 84.7171H91.7898C91.8091 85.1158 91.9055 85.4566 92.0792 85.7396C92.2528 86.0226 92.4811 86.238 92.7641 86.3859C93.047 86.5274 93.3557 86.5981 93.6901 86.5981C94.1274 86.5981 94.494 86.492 94.7898 86.2798C95.0921 86.0676 95.2914 85.7814 95.3879 85.4213H96.1017C95.9731 85.9357 95.6966 86.357 95.2721 86.6849C94.8541 87.0065 94.3268 87.1673 93.6901 87.1673C93.1949 87.1673 92.7512 87.0579 92.3589 86.8393C91.9666 86.6142 91.658 86.2991 91.4329 85.8939C91.2142 85.4824 91.1049 85.0033 91.1049 84.4566C91.1049 83.91 91.2142 83.4309 91.4329 83.0193C91.6515 82.6077 91.957 82.2926 92.3493 82.074C92.7416 81.8553 93.1885 81.746 93.6901 81.746C94.1917 81.746 94.629 81.8553 95.002 82.074C95.3815 82.2926 95.6708 82.5885 95.8702 82.9614C96.076 83.328 96.1789 83.7364 96.1789 84.1865ZM95.494 84.1672C95.5004 83.775 95.42 83.4405 95.2528 83.164C95.0921 82.8875 94.8702 82.6785 94.5872 82.537C94.3043 82.3955 93.9956 82.3248 93.6612 82.3248C93.1596 82.3248 92.7319 82.4856 92.3782 82.8071C92.0245 83.1286 91.8284 83.582 91.7898 84.1672H95.494ZM99.2278 87.1673C98.6233 87.1673 98.1281 87.029 97.7423 86.7525C97.3628 86.4695 97.1506 86.0869 97.1056 85.6045H97.8001C97.8323 85.9004 97.9706 86.1415 98.2149 86.328C98.4657 86.5081 98.8002 86.5981 99.2182 86.5981C99.5847 86.5981 99.8709 86.5113 100.077 86.3377C100.289 86.164 100.395 85.9486 100.395 85.6914C100.395 85.5113 100.337 85.3634 100.221 85.2476C100.106 85.1319 99.9577 85.0418 99.7777 84.9775C99.604 84.9068 99.3661 84.8328 99.0638 84.7557C98.6715 84.6528 98.3532 84.5499 98.1088 84.447C97.8645 84.3441 97.6555 84.193 97.4818 83.9936C97.3146 83.7878 97.231 83.5145 97.231 83.1737C97.231 82.9164 97.3082 82.6785 97.4625 82.4598C97.6169 82.2412 97.8355 82.0675 98.1185 81.9389C98.4014 81.8103 98.723 81.746 99.0831 81.746C99.649 81.746 100.106 81.8907 100.453 82.1801C100.8 82.4631 100.987 82.8553 101.012 83.3569H100.337C100.318 83.0483 100.196 82.8007 99.9706 82.6142C99.7519 82.4212 99.4497 82.3248 99.0638 82.3248C98.723 82.3248 98.4465 82.4052 98.2342 82.5659C98.022 82.7267 97.9159 82.9261 97.9159 83.164C97.9159 83.3698 97.977 83.5402 98.0992 83.6753C98.2278 83.8039 98.3854 83.9068 98.5719 83.984C98.7584 84.0547 99.0092 84.1351 99.3243 84.2251C99.7037 84.328 100.006 84.4277 100.231 84.5242C100.456 84.6206 100.649 84.7621 100.81 84.9486C100.971 85.1351 101.054 85.3827 101.061 85.6914C101.061 85.9743 100.983 86.2283 100.829 86.4534C100.675 86.6721 100.459 86.8457 100.183 86.9743C99.9063 87.1029 99.5879 87.1673 99.2278 87.1673ZM102.949 85.9711L101.946 88.4985H101.483L102.197 85.9711H102.949ZM110.592 80.3473V80.9068H108.72V87.0901H108.045V80.9068H106.164V80.3473H110.592ZM111.349 84.447C111.349 83.9068 111.455 83.4341 111.667 83.029C111.886 82.6174 112.185 82.3023 112.565 82.0836C112.95 81.8585 113.384 81.746 113.867 81.746C114.368 81.746 114.799 81.8618 115.159 82.0933C115.526 82.3248 115.79 82.6206 115.95 82.9807V81.8232H116.626V87.0901H115.95V85.9229C115.783 86.283 115.516 86.582 115.15 86.82C114.79 87.0515 114.359 87.1673 113.857 87.1673C113.381 87.1673 112.95 87.0547 112.565 86.8296C112.185 86.6046 111.886 86.2862 111.667 85.8746C111.455 85.4631 111.349 84.9872 111.349 84.447ZM115.95 84.4566C115.95 84.0322 115.864 83.6592 115.69 83.3377C115.516 83.0161 115.278 82.7685 114.976 82.5949C114.68 82.4212 114.352 82.3344 113.992 82.3344C113.619 82.3344 113.285 82.418 112.989 82.5852C112.693 82.7524 112.458 82.9968 112.285 83.3184C112.118 83.6335 112.034 84.0097 112.034 84.447C112.034 84.8779 112.118 85.2573 112.285 85.5853C112.458 85.9068 112.693 86.1544 112.989 86.328C113.285 86.4952 113.619 86.5788 113.992 86.5788C114.352 86.5788 114.68 86.492 114.976 86.3184C115.278 86.1447 115.516 85.8972 115.69 85.5756C115.864 85.2541 115.95 84.8811 115.95 84.4566ZM118.505 80.8296C118.37 80.8296 118.254 80.7814 118.158 80.6849C118.061 80.5884 118.013 80.4695 118.013 80.328C118.013 80.1865 118.061 80.0708 118.158 79.9807C118.254 79.8843 118.37 79.836 118.505 79.836C118.64 79.836 118.756 79.8843 118.852 79.9807C118.949 80.0708 118.997 80.1865 118.997 80.328C118.997 80.4695 118.949 80.5884 118.852 80.6849C118.756 80.7814 118.64 80.8296 118.505 80.8296ZM118.842 81.8232V87.0901H118.167V81.8232H118.842ZM121.047 79.9518V87.0901H120.372V79.9518H121.047ZM124.881 87.1673C124.386 87.1673 123.939 87.0579 123.54 86.8393C123.148 86.6142 122.836 86.2991 122.605 85.8939C122.38 85.4824 122.267 85.0033 122.267 84.4566C122.267 83.91 122.383 83.4341 122.614 83.029C122.846 82.6174 123.161 82.3023 123.56 82.0836C123.958 81.8585 124.405 81.746 124.901 81.746C125.396 81.746 125.843 81.8585 126.241 82.0836C126.647 82.3023 126.962 82.6174 127.187 83.029C127.418 83.4341 127.534 83.91 127.534 84.4566C127.534 84.9968 127.418 85.4727 127.187 85.8843C126.955 86.2959 126.637 86.6142 126.232 86.8393C125.827 87.0579 125.377 87.1673 124.881 87.1673ZM124.881 86.5788C125.229 86.5788 125.55 86.5017 125.846 86.3473C126.142 86.1865 126.38 85.9486 126.56 85.6335C126.746 85.3119 126.84 84.9197 126.84 84.4566C126.84 83.9936 126.75 83.6045 126.569 83.2894C126.389 82.9679 126.151 82.7299 125.856 82.5756C125.56 82.4148 125.238 82.3344 124.891 82.3344C124.544 82.3344 124.222 82.4148 123.926 82.5756C123.631 82.7299 123.393 82.9679 123.213 83.2894C123.039 83.6045 122.952 83.9936 122.952 84.4566C122.952 84.9197 123.039 85.3119 123.213 85.6335C123.393 85.9486 123.627 86.1865 123.917 86.3473C124.213 86.5017 124.534 86.5788 124.881 86.5788ZM129.44 82.7589C129.588 82.4309 129.813 82.1769 130.115 81.9968C130.424 81.8167 130.8 81.7267 131.244 81.7267V82.4309H131.061C130.572 82.4309 130.18 82.5627 129.884 82.8264C129.588 83.0901 129.44 83.5306 129.44 84.1479V87.0901H128.765V81.8232H129.44V82.7589ZM137.025 84.1865C137.025 84.418 137.019 84.5949 137.006 84.7171H132.636C132.655 85.1158 132.752 85.4566 132.925 85.7396C133.099 86.0226 133.327 86.238 133.61 86.3859C133.893 86.5274 134.202 86.5981 134.536 86.5981C134.974 86.5981 135.34 86.492 135.636 86.2798C135.938 86.0676 136.138 85.7814 136.234 85.4213H136.948C136.819 85.9357 136.543 86.357 136.118 86.6849C135.7 87.0065 135.173 87.1673 134.536 87.1673C134.041 87.1673 133.598 87.0579 133.205 86.8393C132.813 86.6142 132.504 86.2991 132.279 85.8939C132.061 85.4824 131.951 85.0033 131.951 84.4566C131.951 83.91 132.061 83.4309 132.279 83.0193C132.498 82.6077 132.803 82.2926 133.196 82.074C133.588 81.8553 134.035 81.746 134.536 81.746C135.038 81.746 135.475 81.8553 135.848 82.074C136.228 82.2926 136.517 82.5885 136.717 82.9614C136.922 83.328 137.025 83.7364 137.025 84.1865ZM136.34 84.1672C136.347 83.775 136.266 83.4405 136.099 83.164C135.938 82.8875 135.717 82.6785 135.434 82.537C135.151 82.3955 134.842 82.3248 134.508 82.3248C134.006 82.3248 133.578 82.4856 133.225 82.8071C132.871 83.1286 132.675 83.582 132.636 84.1672H136.34ZM137.952 84.447C137.952 83.9068 138.061 83.4341 138.28 83.029C138.499 82.6174 138.798 82.3023 139.177 82.0836C139.563 81.8585 139.997 81.746 140.479 81.746C140.942 81.746 141.36 81.8585 141.733 82.0836C142.106 82.3087 142.38 82.6013 142.553 82.9614V79.9518H143.228V87.0901H142.553V85.9132C142.392 86.2798 142.129 86.582 141.762 86.82C141.396 87.0515 140.965 87.1673 140.47 87.1673C139.987 87.1673 139.553 87.0547 139.167 86.8296C138.788 86.6046 138.489 86.2862 138.27 85.8746C138.058 85.4631 137.952 84.9872 137.952 84.447ZM142.553 84.4566C142.553 84.0322 142.466 83.6592 142.293 83.3377C142.119 83.0161 141.881 82.7685 141.579 82.5949C141.283 82.4212 140.955 82.3344 140.595 82.3344C140.222 82.3344 139.888 82.418 139.592 82.5852C139.296 82.7524 139.061 82.9968 138.888 83.3184C138.72 83.6335 138.637 84.0097 138.637 84.447C138.637 84.8779 138.72 85.2573 138.888 85.5853C139.061 85.9068 139.296 86.1544 139.592 86.328C139.888 86.4952 140.222 86.5788 140.595 86.5788C140.955 86.5788 141.283 86.492 141.579 86.3184C141.881 86.1447 142.119 85.8972 142.293 85.5756C142.466 85.2541 142.553 84.8811 142.553 84.4566ZM154.362 81.8232L152.713 87.0901H152.038L150.581 82.6721L149.125 87.0901H148.44L146.79 81.8232H147.475L148.787 86.4052L150.263 81.8232H150.938L152.395 86.4148L153.697 81.8232H154.362ZM155.621 80.8296C155.486 80.8296 155.37 80.7814 155.273 80.6849C155.177 80.5884 155.129 80.4695 155.129 80.328C155.129 80.1865 155.177 80.0708 155.273 79.9807C155.37 79.8843 155.486 79.836 155.621 79.836C155.756 79.836 155.871 79.8843 155.968 79.9807C156.064 80.0708 156.113 80.1865 156.113 80.328C156.113 80.4695 156.064 80.5884 155.968 80.6849C155.871 80.7814 155.756 80.8296 155.621 80.8296ZM155.958 81.8232V87.0901H155.283V81.8232H155.958ZM158.365 82.3923V85.6624C158.365 85.984 158.426 86.2058 158.548 86.328C158.671 86.4502 158.886 86.5113 159.195 86.5113H159.812V87.0901H159.089C158.613 87.0901 158.259 86.9808 158.028 86.7621C157.796 86.537 157.68 86.1705 157.68 85.6624V82.3923H156.947V81.8232H157.68V80.5016H158.365V81.8232H159.812V82.3923H158.365ZM163.434 81.7267C163.833 81.7267 164.189 81.8103 164.505 81.9775C164.826 82.1447 165.077 82.402 165.257 82.7492C165.443 83.0901 165.537 83.5081 165.537 84.0033V87.0901H164.871V84.0804C164.871 83.5081 164.726 83.0708 164.437 82.7685C164.154 82.4663 163.765 82.3151 163.27 82.3151C162.762 82.3151 162.357 82.4759 162.054 82.7975C161.752 83.119 161.601 83.5917 161.601 84.2155V87.0901H160.926V79.9518H161.601V82.7203C161.768 82.4052 162.013 82.1608 162.334 81.9872C162.662 81.8135 163.029 81.7267 163.434 81.7267ZM169.369 83.7139C169.369 83.0515 169.513 82.4598 169.803 81.9389C170.092 81.4116 170.488 81.0032 170.989 80.7138C171.491 80.418 172.05 80.2701 172.668 80.2701C173.42 80.2701 174.063 80.4502 174.597 80.8103C175.137 81.164 175.529 81.6656 175.774 82.3151H174.983C174.79 81.8585 174.494 81.5016 174.095 81.2444C173.703 80.9872 173.227 80.8585 172.668 80.8585C172.172 80.8585 171.725 80.9743 171.327 81.2058C170.934 81.4373 170.626 81.7717 170.401 82.209C170.176 82.6399 170.063 83.1415 170.063 83.7139C170.063 84.2862 170.176 84.7878 170.401 85.2187C170.626 85.6496 170.934 85.9808 171.327 86.2123C171.725 86.4438 172.172 86.5595 172.668 86.5595C173.227 86.5595 173.703 86.4341 174.095 86.1833C174.494 85.9261 174.79 85.5724 174.983 85.1222H175.774C175.529 85.7653 175.137 86.2637 174.597 86.6174C174.057 86.9711 173.414 87.148 172.668 87.148C172.05 87.148 171.491 87.0033 170.989 86.7139C170.488 86.4181 170.092 86.0097 169.803 85.4888C169.513 84.9679 169.369 84.3762 169.369 83.7139ZM176.811 84.447C176.811 83.9068 176.917 83.4341 177.129 83.029C177.348 82.6174 177.647 82.3023 178.026 82.0836C178.412 81.8585 178.846 81.746 179.328 81.746C179.83 81.746 180.261 81.8618 180.621 82.0933C180.987 82.3248 181.251 82.6206 181.412 82.9807V81.8232H182.087V87.0901H181.412V85.9229C181.245 86.283 180.978 86.582 180.611 86.82C180.251 87.0515 179.82 87.1673 179.319 87.1673C178.843 87.1673 178.412 87.0547 178.026 86.8296C177.647 86.6046 177.348 86.2862 177.129 85.8746C176.917 85.4631 176.811 84.9872 176.811 84.447ZM181.412 84.4566C181.412 84.0322 181.325 83.6592 181.151 83.3377C180.978 83.0161 180.74 82.7685 180.438 82.5949C180.142 82.4212 179.814 82.3344 179.454 82.3344C179.081 82.3344 178.746 82.418 178.45 82.5852C178.155 82.7524 177.92 82.9968 177.746 83.3184C177.579 83.6335 177.495 84.0097 177.495 84.447C177.495 84.8779 177.579 85.2573 177.746 85.5853C177.92 85.9068 178.155 86.1544 178.45 86.328C178.746 86.4952 179.081 86.5788 179.454 86.5788C179.814 86.5788 180.142 86.492 180.438 86.3184C180.74 86.1447 180.978 85.8972 181.151 85.5756C181.325 85.2541 181.412 84.8811 181.412 84.4566ZM184.304 82.7589C184.452 82.4309 184.677 82.1769 184.979 81.9968C185.288 81.8167 185.664 81.7267 186.108 81.7267V82.4309H185.924C185.436 82.4309 185.043 82.5627 184.748 82.8264C184.452 83.0901 184.304 83.5306 184.304 84.1479V87.0901H183.629V81.8232H184.304V82.7589ZM191.889 84.1865C191.889 84.418 191.882 84.5949 191.87 84.7171H187.5C187.519 85.1158 187.616 85.4566 187.789 85.7396C187.963 86.0226 188.191 86.238 188.474 86.3859C188.757 86.5274 189.066 86.5981 189.4 86.5981C189.837 86.5981 190.204 86.492 190.5 86.2798C190.802 86.0676 191.001 85.7814 191.098 85.4213H191.812C191.683 85.9357 191.407 86.357 190.982 86.6849C190.564 87.0065 190.037 87.1673 189.4 87.1673C188.905 87.1673 188.461 87.0579 188.069 86.8393C187.677 86.6142 187.368 86.2991 187.143 85.8939C186.924 85.4824 186.815 85.0033 186.815 84.4566C186.815 83.91 186.924 83.4309 187.143 83.0193C187.362 82.6077 187.667 82.2926 188.059 82.074C188.452 81.8553 188.898 81.746 189.4 81.746C189.902 81.746 190.339 81.8553 190.712 82.074C191.091 82.2926 191.381 82.5885 191.58 82.9614C191.786 83.328 191.889 83.7364 191.889 84.1865ZM191.204 84.1672C191.21 83.775 191.13 83.4405 190.963 83.164C190.802 82.8875 190.58 82.6785 190.297 82.537C190.014 82.3955 189.706 82.3248 189.371 82.3248C188.87 82.3248 188.442 82.4856 188.088 82.8071C187.734 83.1286 187.538 83.582 187.5 84.1672H191.204Z" fill="white"/>
<path d="M72.0349 0V71.7741H37.9572V66.4165C37.9584 66.4079 37.9584 66.3991 37.9572 66.3904H66.6486V5.38371H54.0926V7.17741H54.0744V9.0754H54.09V14.991H54.0718V18.946C53.5988 18.9501 53.1466 19.1409 52.8136 19.4768C52.4806 19.8128 52.2937 20.2667 52.2937 20.7397C52.2917 20.8793 52.3075 21.0186 52.3407 21.1542C52.4339 21.5475 52.6571 21.8978 52.9741 22.1485C53.291 22.3992 53.6833 22.5357 54.0874 22.536V25.3256C54.0874 25.5386 54.0028 25.7428 53.8522 25.8934C53.7017 26.044 53.4974 26.1286 53.2844 26.1286H45.0329C44.8199 26.1286 44.6157 26.044 44.4651 25.8934C44.3145 25.7428 44.2299 25.5386 44.2299 25.3256V22.536C44.6342 22.5362 45.0267 22.3999 45.3437 22.1491C45.6608 21.8982 45.8838 21.5477 45.9767 21.1542C46.0095 21.0185 46.0261 20.8793 46.0262 20.7397C46.0255 20.2664 45.8381 19.8125 45.5047 19.4767C45.1713 19.1408 44.7188 18.9501 44.2455 18.946V0H72.0349Z" fill="white"/>
<path d="M5.64441 5.38371V66.3904H23.1669V71.7715H0.260712V0H39.5084V5.38371H5.64441Z" fill="white"/>
<path d="M49.16 27.1218H49.0791H47.5644V47.8224H47.5618L46.0418 50.453L47.5618 57.2654H50.1898H50.5965L52.1164 50.453L50.5965 47.8224H50.5939V27.1218H49.16Z" fill="white"/>
<path d="M83.162 22.1737L87.4169 21.3342C87.5525 24.5514 88.3216 26.6293 90.5011 26.6293C92.0654 26.6293 92.7458 25.5577 92.7458 24.0821C92.7458 21.7357 91.5388 20.4321 89.7633 18.8887L86.3454 15.9036C84.4005 14.2272 83.1959 12.35 83.1959 9.33361C83.1959 5.04489 85.8761 2.6333 90.1987 2.6333C95.293 2.6333 96.7348 6.05124 97.0033 10.0062L92.7458 10.7415C92.6468 8.1943 92.2766 6.28588 90.0996 6.28588C88.624 6.28588 87.821 7.3913 87.821 8.83304C87.821 10.6763 88.6031 11.68 90.0318 12.921L93.4211 15.9036C95.6346 17.8146 97.4778 20.1923 97.4778 23.7797C97.4778 27.6904 94.7273 30.4487 90.6732 30.4487C85.7092 30.4513 83.3628 27.5678 83.162 22.1737Z" fill="white"/>
<path d="M100.387 2.93555H111.78V6.42127H105.312V14.2296H110.406V17.6814H105.312V26.6969H111.848V30.0861H100.377L100.387 2.93555Z" fill="white"/>
<path d="M114.729 2.93555H121.265C126.693 2.93555 129.777 4.67971 129.777 10.1416C129.777 13.3927 128.972 15.6713 126.425 16.709L130.213 30.0809H125.259L122.008 17.6475H119.662V30.0809H114.734L114.729 2.93555ZM121.231 14.5659C124.078 14.5659 125.119 13.3249 125.119 10.4102C125.119 7.66226 124.336 6.3222 121.5 6.3222H119.657V14.5659H121.231Z" fill="white"/>
<path d="M132.121 2.93555H136.478L140.063 22.1396L143.452 2.93555H147.907L142.432 30.0809H137.573L132.121 2.93555Z" fill="white"/>
<path d="M150.833 2.93555H155.726V30.0809H150.833V2.93555Z" fill="white"/>
<path d="M159.467 21.4018V11.7164C159.467 6.15276 161.243 2.63574 167.208 2.63574C172.772 2.63574 174.547 5.71737 174.547 10.4441V12.7227H169.789V10.3763C169.789 8.09767 169.755 6.25443 167.242 6.25443C164.729 6.25443 164.46 8.19674 164.46 10.6865V22.4473C164.46 25.3985 165.062 26.8038 167.242 26.8038C169.687 26.8038 169.789 24.8954 169.789 22.4812V20.0357H174.557V22.2126C174.557 27.0071 172.949 30.459 167.218 30.459C161.243 30.4512 159.467 26.6969 159.467 21.4018Z" fill="white"/>
<path d="M177.999 2.93555H189.392V6.42127H182.924V14.2296H188.018V17.6814H182.924V26.6969H189.46V30.0861H177.988L177.999 2.93555Z" fill="white"/>
<path d="M83.162 59.4554L87.4169 58.6159C87.5525 61.8331 88.3216 63.911 90.5011 63.911C92.0654 63.911 92.7458 62.8395 92.7458 61.3638C92.7458 59.0174 91.5388 57.7139 89.7633 56.1705L86.3454 53.1853C84.4005 51.5089 83.1959 49.6318 83.1959 46.6153C83.1959 42.3266 85.8761 39.915 90.1987 39.915C95.293 39.915 96.7348 43.333 97.0033 47.288L92.7458 48.0232C92.6468 45.476 92.2766 43.5676 90.0996 43.5676C88.624 43.5676 87.821 44.673 87.821 46.1148C87.821 47.958 88.6031 48.9618 90.0318 50.2028L93.4211 53.1853C95.6346 55.0963 97.4778 57.474 97.4778 61.0614C97.4778 64.9721 94.7273 67.7304 90.6732 67.7304C85.7092 67.733 83.3628 64.8496 83.162 59.4554Z" fill="white"/>
<path d="M108.931 67.6992C108.743 67.7284 108.553 67.7398 108.363 67.7331C102.496 67.7331 100.52 64.3439 100.52 58.8507V48.6646C100.52 43.1688 102.53 39.9177 108.363 39.9177C114.195 39.9177 116.184 43.1688 116.184 48.6646V58.8507C116.184 62.7379 115.141 65.6292 112.43 66.8937C113.235 67.8661 114.273 68.9793 115.144 69.5008L114.205 72.7831C112.552 72.0219 110.274 69.7093 108.931 67.6992ZM111.178 60.0239V47.5253C111.178 45.2441 110.774 43.5364 108.363 43.5364C105.951 43.5364 105.547 45.2441 105.547 47.5253V60.0239C105.547 62.2686 105.917 64.078 108.363 64.078C110.808 64.078 111.178 62.2686 111.178 60.0239Z" fill="white"/>
<path d="M120.225 58.5821V40.2175H125.051V59.1531C125.051 61.7341 125.353 64.0466 127.866 64.0466C130.38 64.0466 130.713 61.7341 130.713 59.1531V40.2175H135.505V58.5821C135.505 64.2813 133.941 67.7331 127.866 67.7331C121.792 67.7331 120.225 64.2813 120.225 58.5821Z" fill="white"/>
<path d="M143.885 40.2175H149.18L154.608 67.3629H150.017L148.945 61.1058H144.218L143.113 67.3629H138.457L143.885 40.2175ZM148.408 57.946L146.565 46.5528L144.721 57.946H148.408Z" fill="white"/>
<path d="M157.893 40.2175H164.426C169.854 40.2175 172.938 41.9617 172.938 47.4236C172.938 50.6747 172.135 52.9533 169.588 53.991L173.374 67.3629H168.42L165.172 54.9295H162.825V67.3629H157.901L157.893 40.2175ZM164.39 51.8479C167.239 51.8479 168.277 50.6069 168.277 47.6922C168.277 44.9442 167.495 43.6042 164.658 43.6042H162.825V51.8479H164.39Z" fill="white"/>
<path d="M177.261 40.2175H188.654V43.7033H182.189V51.5246H187.28V54.9765H182.189V63.9789H188.722V67.3681H177.251L177.261 40.2175Z" fill="white"/>
<path d="M39.644 14.0575H36.8804C36.7346 14.0575 36.5902 14.0864 36.4556 14.1424C36.3209 14.1985 36.1987 14.2806 36.096 14.3841C35.9932 14.4875 35.912 14.6103 35.8569 14.7453C35.8018 14.8804 35.7739 15.025 35.775 15.1708C35.7789 15.2985 35.7507 15.4251 35.6928 15.539C35.6349 15.6529 35.5493 15.7504 35.4439 15.8226C32.8367 17.5068 30.9753 16.2866 30.3834 15.7913C30.322 15.7381 30.2726 15.6725 30.2384 15.5988C30.2043 15.5251 30.1862 15.4449 30.1853 15.3637C30.1819 15.0202 30.043 14.692 29.7989 14.4504C29.5548 14.2087 29.2252 14.0732 28.8817 14.0732L21.0604 14.0888C21.0604 14.0888 11.9354 12.853 9.1745 22.296C9.15823 22.3492 9.15732 22.4058 9.17187 22.4594C9.18642 22.5131 9.21584 22.5615 9.25673 22.5991C9.29762 22.6367 9.34831 22.662 9.40295 22.672C9.4576 22.6821 9.51398 22.6765 9.56557 22.6558C12.9548 21.3523 18.1534 17.0766 21.1777 22.3951C21.222 22.4733 21.2689 22.5515 21.3133 22.6376C21.4469 22.8224 21.6267 22.9689 21.8347 23.0625V25.3438C21.8358 25.6583 21.929 25.9657 22.1027 26.2279C22.2765 26.4901 22.5232 26.6957 22.8124 26.8194L22.0302 71.7532H24.0455C24.0951 70.2384 24.1524 65.822 24.1994 64.3881C24.2906 61.9426 23.8552 36.1972 23.9386 34.2419C24.1159 30.3312 24.2332 27.7241 24.2332 27.7241C24.2332 27.7241 24.1994 30.3312 24.1446 34.2419C24.1055 36.1972 24.056 61.9426 24.0064 64.3881C23.9699 65.7073 23.9204 70.3558 23.8839 71.7454H29.0173L28.4855 26.8272C28.7745 26.7024 29.0207 26.4956 29.1935 26.2325C29.3663 25.9693 29.4582 25.6612 29.4579 25.3464V23.0652C29.6786 22.9601 29.8652 22.7951 29.9966 22.589C30.128 22.383 30.1988 22.1441 30.2009 21.8998C30.1995 21.8184 30.2164 21.7378 30.2502 21.6638C30.2841 21.5898 30.334 21.5243 30.3965 21.4722C30.9831 20.9742 32.8498 19.7463 35.4569 21.4174C35.5624 21.4896 35.648 21.5871 35.7058 21.701C35.7637 21.8149 35.7919 21.9415 35.788 22.0692C35.788 22.3638 35.905 22.6463 36.1133 22.8546C36.3216 23.0628 36.6041 23.1799 36.8986 23.1799H39.6622C39.8077 23.1795 39.9517 23.1505 40.086 23.0945C40.2203 23.0385 40.3423 22.9566 40.4449 22.8535C40.5476 22.7504 40.6289 22.628 40.6843 22.4934C40.7396 22.3589 40.768 22.2147 40.7676 22.0692L40.7546 15.176C40.7556 15.0295 40.7276 14.8842 40.6723 14.7486C40.6169 14.6129 40.5353 14.4896 40.4321 14.3856C40.3288 14.2816 40.206 14.1991 40.0708 14.1428C39.9355 14.0865 39.7905 14.0575 39.644 14.0575ZM15.1552 16.6099C14.868 16.7422 14.5878 16.8892 14.3157 17.0505C14.0489 17.1999 13.7936 17.369 13.5519 17.5563C13.3166 17.7189 13.0936 17.8984 12.8844 18.0934C12.6859 18.2571 12.501 18.4367 12.3317 18.6304C12.1753 18.8129 12.0267 18.9746 11.8937 19.1206L11.6122 19.5351L11.3514 19.8975L11.5548 19.4986C11.62 19.3709 11.7008 19.217 11.7947 19.0424C11.8885 18.8677 12.0371 18.693 12.1857 18.4975C12.3432 18.2847 12.5175 18.0851 12.7071 17.9004C12.9045 17.6779 13.1257 17.4776 13.3667 17.3034C13.6139 17.1022 13.8753 16.9193 14.1489 16.7559C14.4266 16.5811 14.7138 16.4218 15.0092 16.2788C15.5981 16.0111 16.2086 15.7939 16.8342 15.6296C17.3754 15.4891 17.9261 15.3881 18.4819 15.3272C19.0209 15.2636 19.5646 15.2496 20.1062 15.2855C19.5713 15.3398 19.0396 15.4216 18.5132 15.5306C18.0387 15.6244 17.4938 15.76 16.9203 15.9347C16.314 16.1097 15.7236 16.3356 15.1552 16.6099ZM29.0251 16.1432C29.059 16.4613 29.059 16.7872 29.0721 17.1626C29.0903 17.903 29.1242 18.7686 29.1346 19.6941C29.1346 20.1634 29.1529 20.6223 29.1346 21.1385C29.0978 21.4274 28.9565 21.6929 28.7376 21.8849C28.5186 22.077 28.237 22.1824 27.9458 22.1813L25.0493 22.1605L23.7118 22.137C23.5003 22.1391 23.2888 22.1295 23.0783 22.1083C22.8651 22.0714 22.6674 21.9726 22.5099 21.8242C22.3786 21.698 22.2795 21.5422 22.221 21.3698C22.1625 21.1974 22.1462 21.0135 22.1736 20.8335C22.1736 20.5336 22.1945 20.2703 22.2049 20.0513C22.2258 19.6185 22.2388 19.3709 22.2388 19.3709C22.2388 19.3709 22.2388 19.6185 22.2753 20.0513C22.2753 20.2677 22.2962 20.5284 22.3092 20.8335C22.2976 20.9896 22.3222 21.1463 22.3809 21.2915C22.4397 21.4366 22.5311 21.5662 22.6481 21.6703C22.7787 21.7819 22.9391 21.8526 23.1096 21.8737C23.3102 21.8841 23.5112 21.8841 23.7118 21.8737L25.0467 21.845L27.951 21.8137C28.1549 21.8179 28.3534 21.7477 28.5093 21.6162C28.6652 21.4848 28.768 21.3011 28.7983 21.0994C28.8192 20.6457 28.7983 20.1426 28.8166 19.6863C28.8166 18.7608 28.8531 17.8952 28.8661 17.1548C28.8661 16.7872 28.8948 16.4352 28.8922 16.1511C28.8694 15.9029 28.7517 15.6732 28.5637 15.5097C28.3939 15.3626 28.1804 15.2756 27.9562 15.262C28.0151 15.2551 28.0746 15.2551 28.1335 15.262C28.3055 15.2799 28.4694 15.3438 28.608 15.4471C28.7205 15.5294 28.8154 15.6334 28.8871 15.7529C28.9587 15.8725 29.0056 16.0052 29.0251 16.1432ZM35.3787 16.8863C35.2129 16.9981 35.0386 17.0966 34.8573 17.1809C34.5962 17.3056 34.325 17.4077 34.0465 17.4859L33.5641 17.5824C33.3947 17.598 33.2252 17.6215 33.0557 17.6267C32.8816 17.6291 32.7074 17.6204 32.5343 17.6006C32.3701 17.587 32.2071 17.5609 32.0468 17.5224C31.7629 17.4588 31.4873 17.3626 31.2255 17.2356C30.9701 17.1162 30.733 16.9608 30.5216 16.7742C30.7576 16.9203 31.0084 17.0409 31.2699 17.1339C31.8345 17.3457 32.4347 17.4466 33.0375 17.4311C33.2017 17.4311 33.3634 17.4103 33.525 17.4025L33.9943 17.3217C34.2684 17.2575 34.5383 17.1765 34.8025 17.0792C34.9926 17.0142 35.1789 16.9385 35.3605 16.8524L35.5742 16.7637L35.3787 16.8863ZM40.2332 16.1928H36.2547V16.0077H40.2332V16.1928ZM40.2332 15.4289H36.2521V15.0691H40.2332V15.4289Z" fill="white"/>
</svg>
