<svg width="403" height="367" viewBox="0 0 403 367" fill="none" xmlns="http://www.w3.org/2000/svg">
<rect width="403" height="367" rx="10" fill="white"/>
<path d="M332.3 46V321.3H201.59V300.75C201.595 300.717 201.595 300.683 201.59 300.65H311.64V66.65H263.48V73.53H263.41V80.81H263.47V103.5H263.4V118.67C261.586 118.686 259.851 119.418 258.574 120.706C257.297 121.995 256.58 123.736 256.58 125.55C256.572 126.085 256.633 126.62 256.76 127.14C257.118 128.648 257.974 129.992 259.19 130.954C260.405 131.915 261.91 132.439 263.46 132.44V143.14C263.46 143.957 263.136 144.74 262.558 145.318C261.98 145.896 261.197 146.22 260.38 146.22H228.73C227.913 146.22 227.13 145.896 226.552 145.318C225.975 144.74 225.65 143.957 225.65 143.14V132.44C227.201 132.441 228.706 131.918 229.922 130.956C231.139 129.994 231.994 128.649 232.35 127.14C232.476 126.619 232.54 126.086 232.54 125.55C232.538 123.735 231.819 121.994 230.54 120.706C229.261 119.417 227.525 118.686 225.71 118.67V46H332.3Z" fill="#12491D"/>
<path d="M77.65 66.65V300.65H144.86V321.29H57V46H207.54V66.65H77.65Z" fill="#12491D"/>
<path d="M244.56 150.03H244.25H238.44V229.43H238.43L232.6 239.52L238.43 265.65H248.51H250.07L255.9 239.52L250.07 229.43H250.06V150.03H244.56Z" fill="#12491D"/>
<path d="M208.06 99.92H197.46C196.901 99.92 196.347 100.031 195.831 100.246C195.314 100.461 194.845 100.776 194.451 101.172C194.057 101.569 193.745 102.04 193.534 102.558C193.323 103.076 193.216 103.631 193.22 104.19C193.235 104.68 193.127 105.166 192.905 105.602C192.683 106.039 192.355 106.413 191.95 106.69C181.95 113.15 174.81 108.47 172.54 106.57C172.304 106.366 172.115 106.114 171.984 105.832C171.853 105.549 171.783 105.242 171.78 104.93C171.767 103.613 171.234 102.354 170.298 101.427C169.362 100.5 168.098 99.98 166.78 99.98L136.78 100.04C136.78 100.04 101.78 95.3 91.1901 131.52C91.1278 131.724 91.1242 131.941 91.1801 132.147C91.2359 132.352 91.3487 132.538 91.5056 132.682C91.6624 132.827 91.8568 132.924 92.0664 132.962C92.276 133.001 92.4922 132.979 92.6901 132.9C105.69 127.9 125.63 111.5 137.23 131.9C137.4 132.2 137.58 132.5 137.75 132.83C138.263 133.539 138.952 134.101 139.75 134.46V143.21C139.754 144.417 140.112 145.595 140.778 146.601C141.445 147.607 142.391 148.396 143.5 148.87L140.5 321.22H148.23C148.42 315.41 148.64 298.47 148.82 292.97C149.17 283.59 147.5 184.84 147.82 177.34C148.5 162.34 148.95 152.34 148.95 152.34C148.95 152.34 148.82 162.34 148.61 177.34C148.46 184.84 148.27 283.59 148.08 292.97C147.94 298.03 147.75 315.86 147.61 321.19H167.3L165.26 148.9C166.369 148.421 167.313 147.628 167.976 146.619C168.639 145.609 168.991 144.428 168.99 143.22V134.47C169.836 134.067 170.552 133.434 171.056 132.644C171.56 131.853 171.832 130.937 171.84 130C171.835 129.688 171.899 129.379 172.029 129.095C172.159 128.811 172.351 128.56 172.59 128.36C174.84 126.45 182 121.74 192 128.15C192.405 128.427 192.733 128.801 192.955 129.238C193.177 129.674 193.285 130.16 193.27 130.65C193.27 131.78 193.719 132.863 194.518 133.662C195.317 134.461 196.4 134.91 197.53 134.91H208.13C208.688 134.909 209.241 134.797 209.756 134.583C210.271 134.368 210.739 134.054 211.132 133.658C211.526 133.263 211.838 132.793 212.05 132.277C212.263 131.761 212.371 131.208 212.37 130.65L212.32 104.21C212.324 103.648 212.217 103.091 212.004 102.571C211.792 102.05 211.479 101.577 211.083 101.178C210.687 100.78 210.216 100.463 209.697 100.247C209.178 100.031 208.622 99.92 208.06 99.92ZM114.13 109.71C113.028 110.217 111.954 110.781 110.91 111.4C109.887 111.973 108.907 112.621 107.98 113.34C107.078 113.964 106.222 114.652 105.42 115.4C104.659 116.028 103.95 116.717 103.3 117.46C102.7 118.16 102.13 118.78 101.62 119.34L100.54 120.93L99.5401 122.32L100.32 120.79C100.57 120.3 100.88 119.71 101.24 119.04C101.6 118.37 102.17 117.7 102.74 116.95C103.344 116.134 104.013 115.368 104.74 114.66C105.497 113.806 106.345 113.038 107.27 112.37C108.218 111.598 109.221 110.897 110.27 110.27C111.335 109.599 112.437 108.988 113.57 108.44C115.829 107.413 118.17 106.58 120.57 105.95C122.646 105.411 124.758 105.023 126.89 104.79C128.957 104.546 131.043 104.493 133.12 104.63C131.069 104.838 129.029 105.152 127.01 105.57C125.19 105.93 123.1 106.45 120.9 107.12C118.575 107.792 116.31 108.658 114.13 109.71ZM167.33 107.92C167.46 109.14 167.46 110.39 167.51 111.83C167.58 114.67 167.71 117.99 167.75 121.54C167.75 123.34 167.82 125.1 167.75 127.08C167.609 128.188 167.067 129.206 166.227 129.943C165.387 130.68 164.307 131.084 163.19 131.08L152.08 131L146.95 130.91C146.139 130.918 145.327 130.881 144.52 130.8C143.702 130.658 142.944 130.279 142.34 129.71C141.836 129.226 141.456 128.629 141.232 127.967C141.007 127.306 140.945 126.6 141.05 125.91C141.05 124.76 141.13 123.75 141.17 122.91C141.25 121.25 141.3 120.3 141.3 120.3C141.3 120.3 141.3 121.25 141.44 122.91C141.44 123.74 141.52 124.74 141.57 125.91C141.526 126.509 141.62 127.11 141.845 127.667C142.071 128.223 142.421 128.721 142.87 129.12C143.371 129.548 143.986 129.819 144.64 129.9C145.41 129.94 146.181 129.94 146.95 129.9L152.07 129.79L163.21 129.67C163.992 129.686 164.753 129.417 165.352 128.913C165.95 128.408 166.344 127.704 166.46 126.93C166.54 125.19 166.46 123.26 166.53 121.51C166.53 117.96 166.67 114.64 166.72 111.8C166.72 110.39 166.83 109.04 166.82 107.95C166.733 106.998 166.281 106.117 165.56 105.49C164.909 104.926 164.09 104.592 163.23 104.54C163.456 104.513 163.684 104.513 163.91 104.54C164.57 104.608 165.198 104.854 165.73 105.25C166.162 105.566 166.526 105.964 166.8 106.423C167.075 106.882 167.255 107.391 167.33 107.92ZM191.7 110.77C191.064 111.199 190.396 111.577 189.7 111.9C188.699 112.378 187.658 112.77 186.59 113.07L184.74 113.44C184.09 113.5 183.44 113.59 182.79 113.61C182.122 113.619 181.454 113.586 180.79 113.51C180.16 113.458 179.535 113.358 178.92 113.21C177.831 112.966 176.774 112.597 175.77 112.11C174.79 111.652 173.881 111.056 173.07 110.34C173.975 110.901 174.937 111.363 175.94 111.72C178.106 112.532 180.408 112.919 182.72 112.86C183.35 112.86 183.97 112.78 184.59 112.75L186.39 112.44C187.441 112.194 188.477 111.883 189.49 111.51C190.219 111.261 190.934 110.97 191.63 110.64L192.45 110.3L191.7 110.77ZM210.32 108.11H195.06V107.4H210.32V108.11ZM210.32 105.18H195.05V103.8H210.32V105.18Z" fill="#12491D"/>
</svg>
