<svg width="279" height="276" viewBox="0 0 279 276" fill="none" xmlns="http://www.w3.org/2000/svg">
<path d="M189.81 104.03H189.496H183.615V183.43H183.604L177.703 193.52L183.604 219.65H193.808H195.387L201.289 193.52L195.387 183.43H195.377L195.387 104.03H189.81Z" fill="white"/>
<path d="M278.626 0.0198975V275.3H146.313V254.76C146.318 254.723 146.318 254.686 146.313 254.65H257.662V20.6499H208.962V27.5399H208.891V34.8099H208.952V57.5H208.881V72.6599C207.031 72.6679 205.26 73.4015 203.958 74.6992C202.656 75.997 201.929 77.7526 201.937 79.58C201.945 81.4073 202.687 83.1566 204.001 84.4431C205.315 85.7296 207.092 86.4479 208.941 86.4399V97.1299C208.941 97.5344 208.861 97.9349 208.704 98.3086C208.547 98.6823 208.318 99.0219 208.028 99.3079C207.739 99.5939 207.395 99.8207 207.017 99.9755C206.639 100.13 206.233 100.21 205.824 100.21H173.786C172.959 100.21 172.166 99.8855 171.581 99.3079C170.996 98.7302 170.668 97.9467 170.668 97.1299V86.4399C172.518 86.4479 174.295 85.7296 175.608 84.4431C176.922 83.1566 177.665 81.4073 177.673 79.58C177.681 77.7526 176.954 75.997 175.651 74.6992C174.349 73.4015 172.578 72.6679 170.729 72.6599V0.0098877L278.626 0.0198975Z" fill="white"/>
<path d="M20.8526 20.6499V254.65H88.8868V275.29H0V0H152.356V20.6499H20.8526Z" fill="white"/>
<path d="M152.852 53.9299H142.122C141.556 53.9299 140.995 54.0405 140.472 54.2555C139.95 54.4704 139.475 54.7855 139.076 55.1824C138.677 55.5793 138.362 56.0502 138.148 56.5681C137.934 57.086 137.826 57.6406 137.83 58.1999C137.839 58.6903 137.727 59.1754 137.503 59.613C137.279 60.0506 136.95 60.4272 136.544 60.71C126.422 67.16 119.194 62.4799 116.896 60.5799C116.656 60.3776 116.464 60.126 116.333 59.8428C116.202 59.5595 116.135 59.2514 116.137 58.9399C116.137 57.6138 115.604 56.3421 114.655 55.4044C113.705 54.4667 112.418 53.9399 111.076 53.9399L80.7078 54C80.7078 54 45.2786 49.26 34.5587 85.48C34.4973 85.6839 34.4948 85.9008 34.5516 86.1061C34.6085 86.3113 34.7224 86.4967 34.8804 86.6413C35.0384 86.786 35.2342 86.884 35.4457 86.9244C35.6572 86.9648 35.8759 86.946 36.0771 86.87C49.2365 81.87 69.421 65.46 81.1633 85.87C81.3455 86.18 81.5176 86.4699 81.6897 86.7999C82.2073 87.5125 82.9055 88.0781 83.7142 88.4399V97.1799C83.7186 98.3864 84.0804 99.5653 84.7549 100.571C85.4294 101.577 86.3873 102.366 87.5102 102.84L84.4734 275.19H92.2982C92.4905 269.38 92.7132 252.44 92.8955 246.94C93.2497 237.57 91.5593 138.82 91.8832 131.32C92.5614 116.32 93.0169 106.32 93.0169 106.32C93.0169 106.32 92.8853 116.32 92.6829 131.32C92.5209 138.82 92.3286 237.58 92.1363 246.96C92.0047 252.02 91.8022 269.84 91.6605 275.17H111.592L109.507 102.78C110.63 102.302 111.586 101.509 112.257 100.5C112.929 99.4901 113.285 98.3079 113.282 97.1V88.36C114.146 87.9583 114.877 87.3236 115.391 86.5292C115.905 85.7347 116.181 84.8129 116.188 83.87C116.183 83.5566 116.248 83.246 116.38 82.9607C116.511 82.6754 116.705 82.4225 116.947 82.22C119.224 80.31 126.472 75.6099 136.595 82.0199C137.004 82.2943 137.337 82.6665 137.561 83.1018C137.786 83.5371 137.896 84.0214 137.88 84.5099C137.879 85.0697 137.99 85.6243 138.206 86.1417C138.422 86.6592 138.74 87.1293 139.14 87.5251C139.541 87.921 140.017 88.2347 140.541 88.4484C141.065 88.662 141.626 88.7712 142.193 88.7699H152.923C153.488 88.7699 154.048 88.6596 154.57 88.4453C155.092 88.231 155.566 87.9168 155.965 87.521C156.364 87.1251 156.679 86.6554 156.894 86.1387C157.108 85.6219 157.217 85.0684 157.215 84.5099L157.164 58.0699C157.135 56.9602 156.667 55.9057 155.862 55.1321C155.056 54.3584 153.975 53.9269 152.852 53.9299ZM57.7699 63.71C56.6546 64.2173 55.5666 64.7813 54.5104 65.3999C53.4758 65.9752 52.4846 66.6237 51.5445 67.34C50.6373 67.9717 49.7718 68.6597 48.9531 69.3999C48.1796 70.0285 47.4617 70.721 46.8071 71.47C46.1997 72.16 45.6228 72.79 45.1065 73.34L43.9728 74.9299L42.9605 76.3199L43.74 74.7899L44.6712 73.0399C45.1065 72.4099 45.6126 71.7099 46.1896 70.9499C46.8009 70.134 47.478 69.3681 48.2142 68.6599C48.9854 67.8111 49.8436 67.0438 50.7751 66.37C51.7347 65.5984 52.7496 64.8964 53.8119 64.2699C54.8903 63.5993 56.0055 62.9884 57.1524 62.4399C59.4404 61.4173 61.8106 60.5845 64.2383 59.9499C66.3387 59.4092 68.4772 59.0247 70.6358 58.7999C72.7319 58.5561 74.8463 58.5026 76.9523 58.6399C74.8723 58.8477 72.8045 59.1615 70.7573 59.5799C68.67 59.991 66.6055 60.5083 64.5723 61.1299C62.2383 61.7984 59.9661 62.6615 57.78 63.71H57.7699ZM111.622 61.9199C111.754 63.1399 111.764 64.3999 111.805 65.8299C111.875 68.6799 112.007 71.9899 112.047 75.5499C112.047 77.3499 112.118 79.0999 112.047 81.0799C111.904 82.1881 111.356 83.2063 110.506 83.943C109.656 84.6797 108.562 85.0841 107.432 85.0799L96.165 85.0399L90.9721 84.96C90.1522 84.96 89.3525 84.96 88.5123 84.85C87.6835 84.705 86.9161 84.3225 86.3056 83.75C85.7951 83.2667 85.4099 82.669 85.1826 82.0076C84.9553 81.3461 84.8926 80.6404 84.9998 79.9499C84.9998 78.7999 85.0808 77.7899 85.1213 76.9499C85.2023 75.2899 85.2528 74.35 85.2528 74.35C85.2528 74.35 85.2528 75.2899 85.3945 76.9499C85.3945 77.7799 85.4755 78.7899 85.5261 79.9499C85.4804 80.549 85.5754 81.1503 85.8037 81.7071C86.0319 82.264 86.3873 82.7611 86.8421 83.1599C87.3481 83.5909 87.9711 83.8656 88.6338 83.9499C89.3323 84.0199 90.1421 83.9499 90.9721 83.9499L96.1549 83.84L107.432 83.73C108.223 83.7438 108.992 83.4738 109.597 82.97C110.202 82.4661 110.601 81.7626 110.721 80.99C110.802 79.24 110.721 77.3199 110.792 75.5699C110.792 72.0099 110.934 68.7 110.985 65.85C110.985 64.45 111.096 63.0999 111.086 62.0099C111 61.0546 110.543 60.1694 109.81 59.5399C109.151 58.9758 108.322 58.642 107.452 58.59C107.68 58.5634 107.911 58.5634 108.14 58.59C108.807 58.6631 109.442 58.9079 109.982 59.2999C110.859 59.9255 111.452 60.8665 111.632 61.9199H111.622ZM136.291 64.7699C135.645 65.1977 134.968 65.5787 134.267 65.9099C133.25 66.3883 132.193 66.7797 131.108 67.0799L129.236 67.4499C128.588 67.4499 127.92 67.59 127.262 67.62C126.604 67.65 125.936 67.6199 125.237 67.5199C124.599 67.4637 123.966 67.3602 123.344 67.21C122.241 66.9702 121.17 66.6009 120.156 66.11C119.161 65.656 118.241 65.0595 117.423 64.34C118.339 64.9005 119.313 65.3631 120.328 65.72C122.52 66.532 124.85 66.9191 127.191 66.86C127.829 66.86 128.466 66.79 129.084 66.75L130.906 66.4399C131.97 66.1937 133.018 65.8831 134.044 65.5099C134.782 65.2605 135.505 64.9701 136.21 64.6399L137.04 64.2999L136.291 64.7699ZM155.15 62.12H139.692V61.4199H155.139L155.15 62.12ZM155.15 59.1799H139.692V57.7799H155.15V59.1799Z" fill="white"/>
</svg>
